<?xml version="1.0" encoding="UTF-8"?><svg id="uuid-ff3d14b8-8559-42eb-8763-0a6f2d596a70" xmlns="http://www.w3.org/2000/svg" viewBox="0 0 50 30"><defs><style>.uuid-b4742bf5-108b-432d-be18-aab66c39f7c9{fill:#EEE7DA;stroke-width:0px;}</style></defs><path class="uuid-b4742bf5-108b-432d-be18-aab66c39f7c9" d="m10.891,9.754c-.946-1.747-1.885-2.982-2.816-3.706l.022,4.912c0,.495.233.859.699,1.092h-2.795c.466-.233.699-.713.699-1.441V2.969c1.848,2.049,3.246,4.066,4.192,6.053.873-1.987,2.271-4.005,4.192-6.053v7.641c0,.728.233,1.208.699,1.441h-2.795c.466-.233.699-.597.699-1.092l-.022-4.912c-.975.724-1.899,1.959-2.773,3.706Z"/><path class="uuid-b4742bf5-108b-432d-be18-aab66c39f7c9" d="m18.625,3.668c-.466.233-.699.611-.699,1.135v5.502c0,.484.17.896.51,1.236.34.34.752.51,1.236.51s.896-.17,1.236-.51c.34-.34.51-.752.51-1.236v-5.502c0-.524-.233-.902-.699-1.135h2.795c-.466.233-.699.582-.699,1.048v4.891c0,.931-.307,1.63-.92,2.096-.613.466-1.355.699-2.224.699s-1.611-.248-2.224-.745-.92-1.18-.92-2.049v-4.891c0-.466-.233-.815-.699-1.048h2.795Z"/><path class="uuid-b4742bf5-108b-432d-be18-aab66c39f7c9" d="m24.607,11.697c.229.229.609.344,1.141.344h.027c.095.007.186.011.273.011.931,0,1.514-.233,1.747-.699.116-.233.175-.466.175-.699s-.087-.524-.262-.873-.396-.619-.663-.808c-.267-.189-.523-.355-.767-.497-.218-.127-.437-.249-.655-.366l-.087-.055c-.251-.131-.498-.274-.74-.429-.242-.155-.459-.331-.652-.529-.193-.198-.342-.427-.448-.685-.087-.2-.131-.428-.131-.682,0-.069.004-.14.011-.213.044-.477.207-.886.491-1.228.284-.342.65-.597,1.097-.764.346-.131.717-.196,1.113-.196.109,0,.222.005.338.016.317.029.586.089.808.18.065.029.14.044.224.044.207,0,.477-.084.808-.251l-.699,2.096c0-.699-.054-1.1-.161-1.204s-.188-.176-.243-.215c-.258-.182-.548-.288-.868-.317-.065-.007-.129-.011-.191-.011-.32,0-.674.116-1.062.349-.388.233-.581.582-.581,1.048s.105.808.317,1.026c.211.218.425.393.641.524s.467.269.751.415l.049.027.306.164c.448.24.846.494,1.195.761s.619.57.808.909c.156.284.235.606.235.966,0,.076-.004.155-.011.235-.047.513-.225.948-.532,1.305-.308.357-.707.619-1.198.786-.371.127-.771.191-1.201.191-.138,0-.28-.007-.426-.022-.331-.026-.633-.069-.906-.131-.069-.015-.144-.022-.224-.022-.244,0-.54.067-.89.202l.699-2.096c0,.699.115,1.163.344,1.392Z"/><path class="uuid-b4742bf5-108b-432d-be18-aab66c39f7c9" d="m31.14,7.129c.531-.113,1.015-.169,1.452-.169.899,0,1.59.242,2.074.726-.433-.12-.853-.18-1.261-.18-.801,0-1.552.233-2.254.699-.015.007-.029.016-.044.027v3.471h2.096c.466,0,.699-.349.699-1.048l.699,1.397h-5.589c.466-.233.699-.67.699-1.31v-5.764c0-.64-.233-1.077-.699-1.31h5.589l-.699,1.397c0-.699-.233-1.048-.699-1.048h-2.096l-.022,3.122.055-.011Z"/><path class="uuid-b4742bf5-108b-432d-be18-aab66c39f7c9" d="m39.459,12.401c-1.255,0-2.326-.443-3.212-1.329-.886-.886-1.329-1.957-1.329-3.212s.443-2.326,1.329-3.212c.886-.886,1.957-1.329,3.212-1.329s2.326.443,3.212,1.329c.886.886,1.329,1.957,1.329,3.212s-.443,2.326-1.329,3.212c-.886.886-1.957,1.329-3.212,1.329Zm0-.349c.87,0,1.611-.409,2.224-1.228.613-.819.92-1.807.92-2.964s-.307-2.145-.92-2.964c-.613-.819-1.355-1.228-2.224-1.228s-1.611.409-2.224,1.228c-.613.819-.92,1.807-.92,2.964s.307,2.145.92,2.964c.613.819,1.355,1.228,2.224,1.228Z"/><path class="uuid-b4742bf5-108b-432d-be18-aab66c39f7c9" d="m1.917,15.643l-.917-1.835h8.256l-.917,1.835c0-.917-.306-1.376-.917-1.376h-1.376v8.829c0,.841.306,1.414.917,1.72h-3.669c.611-.306.917-.879.917-1.72v-8.829h-1.376c-.612,0-.917.459-.917,1.376Z"/><path class="uuid-b4742bf5-108b-432d-be18-aab66c39f7c9" d="m9.6,22.896l-.15.315c-.134.282-.201.533-.201.752,0,.378.196.662.588.853h-2.752c.755-.306,1.352-.936,1.792-1.892l.666-1.433,1.319-2.867,2.644-5.733,2.644,5.733,1.326,2.867.659,1.433c.439.956,1.037,1.586,1.792,1.892h-3.669c.267-.177.401-.43.401-.76,0-.239-.072-.521-.215-.846l-.516-1.147-2.881-6.421-2.63,5.525c.53-.091,1.02-.136,1.469-.136,1.18,0,2.088.318,2.723.953-.507-.143-1.01-.215-1.512-.215-1.175,0-2.343.385-3.504,1.154l.007-.029Z"/><path class="uuid-b4742bf5-108b-432d-be18-aab66c39f7c9" d="m25.996,22.079c1.223,1.983,3.385,3.633,6.486,4.952-2.924-.311-5.666-1.909-8.227-4.794-.048-.057-.098-.115-.15-.172h-1.347v1.147c0,.765.306,1.3.917,1.605h-3.669c.611-.306.917-.879.917-1.72v-7.568c0-.841-.306-1.414-.917-1.72h5.045c1.142,0,2.115.403,2.92,1.208.805.805,1.208,1.779,1.208,2.92s-.401,2.114-1.204,2.917c-.588.588-1.266.963-2.035,1.125l.057.1Zm-.946-.473c.635,0,1.176-.358,1.623-1.075s.67-1.581.67-2.594-.223-1.878-.67-2.594-.988-1.075-1.623-1.075h-2.293v7.338h2.293Z"/><path class="uuid-b4742bf5-108b-432d-be18-aab66c39f7c9" d="m36.244,25.275c-1.648,0-3.054-.582-4.217-1.745-1.163-1.163-1.745-2.569-1.745-4.217s.582-3.054,1.745-4.217,2.569-1.745,4.217-1.745,3.054.582,4.217,1.745c1.163,1.163,1.745,2.569,1.745,4.217s-.582,3.054-1.745,4.217-2.569,1.745-4.217,1.745Zm0-.459c1.142,0,2.115-.537,2.92-1.612.805-1.075,1.208-2.372,1.208-3.891s-.403-2.816-1.208-3.891c-.805-1.075-1.779-1.612-2.92-1.612s-2.115.537-2.92,1.612c-.805,1.075-1.208,2.372-1.208,3.891s.402,2.816,1.208,3.891c.805,1.075,1.778,1.612,2.92,1.612Z"/><path class="uuid-b4742bf5-108b-432d-be18-aab66c39f7c9" d="m41.662,15.643l-.917-1.835h8.256l-.917,1.835c0-.917-.306-1.376-.917-1.376h-1.376v8.829c0,.841.306,1.414.917,1.72h-3.669c.611-.306.917-.879.917-1.72v-8.829h-1.376c-.612,0-.917.459-.917,1.376Z"/></svg>